<?xml version="1.0" encoding="UTF-8"?>
<!DOCTYPE svg PUBLIC "-//W3C//DTD SVG 1.1//EN" "http://www.w3.org/Graphics/SVG/1.1/DTD/svg11.dtd">
<!-- Creator: CorelDRAW X6 -->
<svg xmlns="http://www.w3.org/2000/svg" xml:space="preserve" width="7.40277in" height="2.54166in" version="1.1" style="shape-rendering:geometricPrecision; text-rendering:geometricPrecision; image-rendering:optimizeQuality; fill-rule:evenodd; clip-rule:evenodd"
viewBox="0 0 7403 2542"
 xmlns:xlink="http://www.w3.org/1999/xlink">
 <defs>
  <style type="text/css">
   <![CDATA[
    .fil2 {fill:#373435}
    .fil1 {fill:#2D2A2A}
    .fil0 {fill:#F7C92E}
   ]]>
  </style>
 </defs>
 <g id="__x0023_Layer_x0020_1">
  <metadata id="CorelCorpID_0Corel-Layer"/>
  <path class="fil0" d="M6850 940l0 700 -268 0 0 -700 -191 0 0 -221 649 0 0 221 -191 0zm-748 -286l0 0c60,0 109,49 109,109 0,60 -49,109 -109,109 -60,0 -109,-49 -109,-109 0,-60 49,-109 109,-109zm145 280l0 0 0 706 -283 0 0 -700c38,30 86,47 138,47 55,0 106,-20 145,-54zm-150 -679l0 0c223,0 411,153 463,360l-118 33c-38,-155 -178,-270 -345,-270 -166,0 -305,114 -344,268l-118 -36c54,-204 241,-355 462,-355zm-290 407l0 0 108 33c18,-84 92,-147 181,-147 89,0 163,63 181,147l0 0 109 -30c-31,-131 -149,-229 -290,-229 -140,0 -258,97 -290,227z"/>
  <path class="fil1" d="M1857 1421l0 220 -693 0 0 -921 693 0 0 213 -416 0 0 134 336 0 0 204 -336 0 0 151 416 0zm743 -701l0 0 283 0 0 921 -283 0 0 -921zm-45 695l0 0 0 226 -646 0 0 -921 283 0 0 695 363 0zm1231 -695l0 0 -286 921 -288 0 -300 -921 298 0 146 501c10,30 19,59 26,87l171 -588 232 0zm722 701l0 0 0 220 -693 0 0 -921 693 0 0 213 -416 0 0 134 336 0 0 204 -336 0 0 151 416 0zm880 220l0 0 -313 0 -152 -352 -70 0 0 352 -283 0 0 -921 481 0c106,0 188,25 247,75 59,50 88,115 88,197 0,53 -11,100 -32,141 -22,41 -65,77 -131,108l167 401zm-536 -548l0 0 121 0c35,0 64,-7 86,-22 22,-15 32,-37 32,-66 0,-59 -36,-89 -109,-89l-130 0 0 177zm612 -3l0 0 367 0 0 159 -367 0 0 -159zm-5196 551l0 0 0 -921 356 0c155,0 271,46 347,138 77,92 115,198 115,318 0,138 -41,249 -124,336 -82,86 -190,129 -321,129l-374 0z"/>
  <polygon class="fil0" points="268,1273 268,1086 569,1086 569,873 921,1180 569,1486 569,1273 "/>
  <path class="fil2" d="M307 2130l33 0 0 -263 -33 0 0 263zm106 0l0 0 32 0 0 -141c19,-20 33,-30 53,-30 25,0 36,16 36,52l0 119 32 0 0 -123c0,-50 -18,-76 -59,-76 -27,0 -46,14 -65,33l-1 0 -3 -28 -27 0 0 195zm223 0l0 0 32 0 0 -141c19,-20 33,-30 53,-30 25,0 36,16 36,52l0 119 32 0 0 -123c0,-50 -18,-76 -59,-76 -27,0 -46,14 -65,33l-1 0 -3 -28 -27 0 0 195zm209 -97l0 0c0,64 42,102 89,102 47,0 89,-37 89,-102 0,-65 -42,-103 -89,-103 -47,0 -89,37 -89,103zm34 0l0 0c0,-45 23,-75 55,-75 33,0 55,30 55,75 0,44 -22,74 -55,74 -33,0 -55,-30 -55,-74zm242 97l0 0 38 0 68 -195 -32 0 -36 111c-6,19 -12,39 -17,57l-2 0c-6,-18 -12,-38 -18,-57l-36 -111 -34 0 69 195zm132 -50l0 0c0,35 24,55 57,55 24,0 45,-13 64,-28l1 0 3 23 27 0 0 -119c0,-48 -20,-80 -67,-80 -31,0 -58,14 -76,25l13 23c15,-10 35,-21 57,-21 31,0 40,24 40,49 -82,9 -118,30 -118,73zm32 -2l0 0c0,-25 22,-41 86,-49l0 54c-19,17 -34,26 -53,26 -19,0 -34,-9 -34,-31zm192 -7l0 0c0,38 14,65 55,65 12,0 25,-4 36,-7l-6 -25c-6,2 -15,5 -22,5 -22,0 -30,-14 -30,-38l0 -108 52 0 0 -27 -52 0 0 -54 -27 0 -4 54 -30 2 0 25 29 0 0 108zm151 -175l0 0c13,0 23,-9 23,-21 0,-13 -10,-21 -23,-21 -13,0 -23,8 -23,21 0,12 10,21 23,21zm-17 235l0 0 32 0 0 -195 -32 0 0 195zm145 0l0 0 38 0 68 -195 -32 0 -36 111c-6,19 -12,39 -17,57l-2 0c-6,-18 -12,-38 -18,-57l-36 -111 -34 0 69 195zm134 -97l0 0c0,64 41,102 92,102 26,0 47,-9 63,-20l-11 -22c-14,9 -30,15 -48,15 -37,0 -62,-26 -64,-68l130 0c1,-5 1,-11 1,-18 0,-56 -28,-91 -77,-91 -44,0 -86,39 -86,103zm32 -15l0 0c4,-39 29,-62 55,-62 30,0 48,22 48,62l-103 0z"/>
  <path class="fil2" d="M2221 2096c23,24 54,39 91,39 55,0 89,-33 89,-75 0,-39 -23,-57 -53,-70l-37 -16c-20,-9 -43,-18 -43,-44 0,-24 19,-38 49,-38 24,0 43,10 59,25l17 -22c-18,-19 -46,-32 -76,-32 -47,0 -82,30 -82,70 0,38 29,57 53,68l37 16c25,11 44,20 44,46 0,26 -20,43 -54,43 -27,0 -53,-13 -72,-33l-20 23zm228 34l0 0 32 0 0 -141c19,-20 33,-30 53,-30 25,0 36,16 36,52l0 119 32 0 0 -123c0,-50 -18,-76 -59,-76 -27,0 -46,14 -64,32l1 -40 0 -78 -32 0 0 285zm234 -235l0 0c13,0 23,-9 23,-21 0,-13 -10,-21 -23,-21 -13,0 -23,8 -23,21 0,12 10,21 23,21zm-17 235l0 0 32 0 0 -195 -32 0 0 195zm131 -18l0 0c18,14 36,22 53,22 44,0 83,-39 83,-105 0,-60 -27,-99 -76,-99 -23,0 -44,12 -61,27l-1 0 -3 -22 -27 0 0 277 32 0 0 -66 -1 -34zm1 -26l0 0 0 -102c19,-17 35,-26 52,-26 36,0 51,29 51,72 0,48 -23,77 -55,77 -13,0 -30,-6 -47,-20zm221 26l0 0c18,14 36,22 53,22 44,0 83,-39 83,-105 0,-60 -27,-99 -76,-99 -23,0 -44,12 -61,27l-1 0 -3 -22 -27 0 0 277 32 0 0 -66 -1 -34zm1 -26l0 0 0 -102c19,-17 35,-26 52,-26 36,0 51,29 51,72 0,48 -23,77 -55,77 -13,0 -30,-6 -47,-20zm206 -191l0 0c13,0 23,-9 23,-21 0,-13 -10,-21 -23,-21 -13,0 -23,8 -23,21 0,12 10,21 23,21zm-17 235l0 0 32 0 0 -195 -32 0 0 195zm99 0l0 0 32 0 0 -141c19,-20 33,-30 53,-30 25,0 36,16 36,52l0 119 32 0 0 -123c0,-50 -18,-76 -59,-76 -27,0 -46,14 -65,33l-1 0 -3 -28 -27 0 0 195zm232 33l0 0c0,-11 6,-23 20,-33 8,2 17,3 25,3l33 0c25,0 39,6 39,24 0,20 -24,40 -61,40 -35,0 -56,-13 -56,-34zm-29 4l0 0c0,34 33,52 80,52 60,0 97,-31 97,-67 0,-32 -23,-46 -67,-46l-37 0c-26,0 -34,-9 -34,-21 0,-11 6,-17 12,-23 9,4 19,7 29,7 39,0 71,-26 71,-68 0,-16 -7,-31 -16,-40l40 0 0 -25 -67 0c-7,-3 -17,-5 -27,-5 -39,0 -73,27 -73,69 0,23 12,42 25,52l0 2c-10,7 -21,20 -21,36 0,15 8,26 17,32l0 2c-17,12 -28,28 -28,44zm80 -121l0 0c-22,0 -41,-18 -41,-46 0,-28 18,-45 41,-45 23,0 41,17 41,45 0,28 -19,46 -41,46z"/>
  <path class="fil2" d="M3829 2096c23,24 54,39 91,39 55,0 89,-33 89,-75 0,-39 -23,-57 -53,-70l-37 -16c-20,-9 -43,-18 -43,-44 0,-24 19,-38 49,-38 24,0 43,10 59,25l17 -22c-18,-19 -46,-32 -76,-32 -47,0 -82,30 -82,70 0,38 29,57 53,68l37 16c25,11 44,20 44,46 0,26 -20,43 -54,43 -27,0 -53,-13 -72,-33l-20 23zm216 -63l0 0c0,64 42,102 89,102 47,0 89,-37 89,-102 0,-65 -42,-103 -89,-103 -47,0 -89,37 -89,103zm34 0l0 0c0,-45 23,-75 55,-75 33,0 55,30 55,75 0,44 -22,74 -55,74 -33,0 -55,-30 -55,-74zm199 58l0 0c0,28 10,44 34,44 9,0 14,-1 19,-3l-4 -25c-4,1 -5,1 -7,1 -5,0 -9,-4 -9,-14l0 -248 -32 0 0 246zm102 -32l0 0c0,50 18,76 59,76 27,0 46,-14 63,-35l1 0 3 30 27 0 0 -195 -32 0 0 138c-18,23 -32,33 -52,33 -25,0 -36,-16 -36,-52l0 -119 -33 0 0 123zm228 11l0 0c0,38 14,65 55,65 12,0 25,-4 36,-7l-6 -25c-6,2 -15,5 -22,5 -22,0 -30,-14 -30,-38l0 -108 52 0 0 -27 -52 0 0 -54 -27 0 -4 54 -30 2 0 25 29 0 0 108zm149 -175l0 0c13,0 23,-9 23,-21 0,-13 -10,-21 -23,-21 -13,0 -23,8 -23,21 0,12 10,21 23,21zm-17 235l0 0 32 0 0 -195 -32 0 0 195zm87 -97l0 0c0,64 42,102 89,102 47,0 89,-37 89,-102 0,-65 -42,-103 -89,-103 -47,0 -89,37 -89,103zm34 0l0 0c0,-45 23,-75 55,-75 33,0 55,30 55,75 0,44 -22,74 -55,74 -33,0 -55,-30 -55,-74zm199 97l0 0 32 0 0 -141c19,-20 33,-30 53,-30 25,0 36,16 36,52l0 119 32 0 0 -123c0,-50 -18,-76 -59,-76 -27,0 -46,14 -65,33l-1 0 -3 -28 -27 0 0 195zm199 -22l0 0c18,15 44,27 72,27 46,0 71,-26 71,-58 0,-37 -31,-48 -59,-59 -22,-8 -43,-16 -43,-34 0,-15 11,-28 35,-28 17,0 31,7 44,17l15 -21c-15,-12 -36,-22 -60,-22 -42,0 -66,24 -66,55 0,33 30,46 57,56 21,8 44,17 44,37 0,17 -13,30 -38,30 -23,0 -40,-10 -57,-23l-16 22z"/>
  <path class="fil2" d="M5686 1852c-9,-4 -20,-6 -32,-6 -38,0 -56,25 -56,64l0 31 -26 2 0 25 26 0 0 168 32 0 0 -168 41 0 0 -27 -41 0 0 -31c0,-25 9,-38 27,-38 7,0 15,2 22,5l7 -25zm10 187l0 0c0,64 42,102 89,102 47,0 89,-37 89,-102 0,-65 -42,-103 -89,-103 -47,0 -89,37 -89,103zm34 0l0 0c0,-45 23,-75 55,-75 33,0 55,30 55,75 0,44 -22,74 -55,74 -33,0 -55,-30 -55,-74zm202 97l0 0 32 0 0 -125c13,-33 33,-45 49,-45 8,0 12,1 19,3l6 -29c-6,-3 -12,-4 -21,-4 -22,0 -42,16 -55,40l-1 0 -3 -35 -27 0 0 195z"/>
  <path class="fil2" d="M6221 2130l147 0 0 -28 -113 0 0 -234 -33 0 0 263zm176 -97l0 0c0,64 41,102 92,102 26,0 47,-9 63,-20l-12 -22c-14,9 -30,15 -48,15 -37,0 -62,-26 -64,-68l130 0c1,-5 1,-11 1,-18 0,-56 -28,-91 -77,-91 -44,0 -86,39 -86,103zm32 -15l0 0c4,-39 29,-62 55,-62 30,0 48,22 48,62l-103 0zm164 90l0 0c18,15 44,27 72,27 46,0 71,-26 71,-58 0,-37 -31,-48 -59,-59 -22,-8 -43,-16 -43,-34 0,-15 11,-28 35,-28 17,0 31,7 44,17l15 -21c-15,-12 -36,-22 -60,-22 -42,0 -66,24 -66,55 0,33 30,46 57,56 21,8 44,17 44,37 0,17 -13,30 -38,30 -23,0 -40,-10 -57,-23l-16 22zm172 0l0 0c18,15 44,27 72,27 46,0 71,-26 71,-58 0,-37 -31,-48 -59,-59 -22,-8 -43,-16 -43,-34 0,-15 11,-28 35,-28 17,0 31,7 44,17l15 -21c-15,-12 -36,-22 -60,-22 -42,0 -66,24 -66,55 0,33 30,46 57,56 21,8 44,17 44,37 0,17 -13,30 -38,30 -23,0 -40,-10 -57,-23l-16 22z"/>
 </g>
</svg>
